<svg width="1496" height="712" aria-label="A chart." style="overflow: hidden;"><defs id="_ABSTRACT_RENDERER_ID_25"><clipPath id="_ABSTRACT_RENDERER_ID_26"><rect x="242" y="136" width="1012" height="440"></rect></clipPath></defs><rect x="0" y="0" width="1496" height="712" stroke="none" stroke-width="0" fill="#ffffff"></rect><g><text text-anchor="start" x="242" y="107.6" font-family="Arial" font-size="16" font-weight="bold" stroke="none" stroke-width="0" fill="#000000">GLACIER AREA PER SUMMER</text><rect x="242" y="94" width="1012" height="16" stroke="none" stroke-width="0" fill-opacity="0" fill="#ffffff"></rect></g><g><rect x="242" y="136" width="1012" height="440" stroke="none" stroke-width="0" fill-opacity="0" fill="#ffffff"></rect><g clip-path="url(https://big-earth-course.users.earthengine.app/view/thesis-test#_ABSTRACT_RENDERER_ID_26)"><g><rect x="242" y="575" width="1012" height="1" stroke="none" stroke-width="0" fill="#cccccc"></rect><rect x="242" y="502" width="1012" height="1" stroke="none" stroke-width="0" fill="#cccccc"></rect><rect x="242" y="429" width="1012" height="1" stroke="none" stroke-width="0" fill="#cccccc"></rect><rect x="242" y="356" width="1012" height="1" stroke="none" stroke-width="0" fill="#cccccc"></rect><rect x="242" y="282" width="1012" height="1" stroke="none" stroke-width="0" fill="#cccccc"></rect><rect x="242" y="209" width="1012" height="1" stroke="none" stroke-width="0" fill="#cccccc"></rect><rect x="242" y="136" width="1012" height="1" stroke="none" stroke-width="0" fill="#cccccc"></rect><rect x="242" y="538" width="1012" height="1" stroke="none" stroke-width="0" fill="#ebebeb"></rect><rect x="242" y="465" width="1012" height="1" stroke="none" stroke-width="0" fill="#ebebeb"></rect><rect x="242" y="392" width="1012" height="1" stroke="none" stroke-width="0" fill="#ebebeb"></rect><rect x="242" y="319" width="1012" height="1" stroke="none" stroke-width="0" fill="#ebebeb"></rect><rect x="242" y="246" width="1012" height="1" stroke="none" stroke-width="0" fill="#ebebeb"></rect><rect x="242" y="173" width="1012" height="1" stroke="none" stroke-width="0" fill="#ebebeb"></rect></g><g><path d="M343.6,245.33826791313186L545.8,205.49556911450054L748,298.5258419520251L950.1999999999999,502.2807696683303L1152.4,423.75447303395777" stroke="#744700" stroke-width="1.5" fill-opacity="1" fill="none"></path></g></g><g><circle cx="343.6" cy="245.33826791313186" r="4.5" stroke="none" stroke-width="0" fill="#744700"></circle><circle cx="545.8" cy="205.49556911450054" r="4.5" stroke="none" stroke-width="0" fill="#744700"></circle><circle cx="748" cy="298.5258419520251" r="4.5" stroke="none" stroke-width="0" fill="#744700"></circle><circle cx="950.1999999999999" cy="502.2807696683303" r="4.5" stroke="none" stroke-width="0" fill="#744700"></circle><circle cx="1152.4" cy="423.75447303395777" r="4.5" stroke="none" stroke-width="0" fill="#744700"></circle></g><g><g><text text-anchor="middle" x="343.6" y="599.6" font-family="Arial" font-size="16" stroke="none" stroke-width="0" fill="#222222">2018/19</text></g><g><text text-anchor="middle" x="545.8" y="599.6" font-family="Arial" font-size="16" stroke="none" stroke-width="0" fill="#222222">2019/20</text></g><g><text text-anchor="middle" x="748" y="599.6" font-family="Arial" font-size="16" stroke="none" stroke-width="0" fill="#222222">2020/21</text></g><g><text text-anchor="middle" x="950.1999999999999" y="599.6" font-family="Arial" font-size="16" stroke="none" stroke-width="0" fill="#222222">2021/22</text></g><g><text text-anchor="middle" x="1152.4" y="599.6" font-family="Arial" font-size="16" stroke="none" stroke-width="0" fill="#222222">2022/23</text></g><g><text text-anchor="end" x="226" y="581.1" font-family="Arial" font-size="16" stroke="none" stroke-width="0" fill="#444444">50.00</text></g><g><text text-anchor="end" x="226" y="507.93330000000003" font-family="Arial" font-size="16" stroke="none" stroke-width="0" fill="#444444">50.05</text></g><g><text text-anchor="end" x="226" y="434.7667" font-family="Arial" font-size="16" stroke="none" stroke-width="0" fill="#444444">50.10</text></g><g><text text-anchor="end" x="226" y="361.6" font-family="Arial" font-size="16" stroke="none" stroke-width="0" fill="#444444">50.15</text></g><g><text text-anchor="end" x="226" y="288.43330000000003" font-family="Arial" font-size="16" stroke="none" stroke-width="0" fill="#444444">50.20</text></g><g><text text-anchor="end" x="226" y="215.2667" font-family="Arial" font-size="16" stroke="none" stroke-width="0" fill="#444444">50.25</text></g><g><text text-anchor="end" x="226" y="142.1" font-family="Arial" font-size="16" stroke="none" stroke-width="0" fill="#444444">50.30</text></g></g></g><g><g><text text-anchor="middle" x="748" y="662.6" font-family="Arial" font-size="16" font-style="italic" stroke="none" stroke-width="0" fill="#222222">Summer Period</text><rect x="242" y="649" width="1012" height="16" stroke="none" stroke-width="0" fill-opacity="0" fill="#ffffff"></rect></g><g><text text-anchor="middle" x="98.6" y="356" font-family="Arial" font-size="16" font-style="italic" transform="rotate(-90 98.6 356)" stroke="none" stroke-width="0" fill="#222222">Glacier Area (Km2)</text><path d="M85,576L85.00000000000001,136L101.00000000000001,136L101,576Z" stroke="none" stroke-width="0" fill-opacity="0" fill="#ffffff"></path></g></g><g></g></svg>